{
  "accessors": [
    {
      "bufferView": 2,
      "componentType": 5126,
      "count": 3486,
      "max": [
        0.666923999786377,
        0.800632119178772,
        1.506481409072876
      ],
      "min": [
        -0.666923999786377,
        0.101429283618927,
        -1.4754621982574463
      ],
      "type": "VEC3"
    },
    {
      "bufferView": 2,
      "byteOffset": 41832,
      "componentType": 5126,
      "count": 3486,
      "max": [
        1.0,
        1.0,
        1.0
      ],
      "min": [
        -1.0,
        -1.0,
        -1.0
      ],
      "type": "VEC3"
    },
    {
      "bufferView": 1,
      "componentType": 5126,
      "count": 3486,
      "max": [
        0.9651039838790894,
        0.9669054746627808
      ],
      "min": [
        0.06170734763145447,
        0.04327395558357239
      ],
      "type": "VEC2"
    },
    {
      "bufferView": 0,
      "componentType": 5125,
      "count": 7896,
      "type": "SCALAR"
    },
    {
      "bufferView": 2,
      "byteOffset": 83664,
      "componentType": 5126,
      "count": 50,
      "max": [
        0.4526063799858093,
        0.7791205644607544,
        0.550892174243927
      ],
      "min": [
        -0.4526063799858093,
        0.5444804430007935,
        -0.5944838523864746
      ],
      "type": "VEC3"
    },
    {
      "bufferView": 2,
      "byteOffset": 84264,
      "componentType": 5126,
      "count": 50,
      "max": [
        0.9262864589691162,
        0.9998757839202881,
        0.3340958058834076
      ],
      "min": [
        -0.9262864589691162,
        0.29402151703834534,
        -0.9557988047599792
      ],
      "type": "VEC3"
    },
    {
      "bufferView": 1,
      "byteOffset": 27888,
      "componentType": 5126,
      "count": 50,
      "max": [
        0.2119259238243103,
        0.9502070546150208
      ],
      "min": [
        0.06151169538497925,
        0.7997928261756897
      ],
      "type": "VEC2"
    },
    {
      "bufferView": 0,
      "byteOffset": 31584,
      "componentType": 5125,
      "count": 114,
      "type": "SCALAR"
    },
    {
      "bufferView": 2,
      "byteOffset": 84864,
      "componentType": 5126,
      "count": 510,
      "max": [
        0.6580986976623535,
        0.3373256027698517,
        1.5554124116897583
      ],
      "min": [
        -0.6580986976623535,
        0.1001642569899559,
        0.9924803972244263
      ],
      "type": "VEC3"
    },
    {
      "bufferView": 2,
      "byteOffset": 90984,
      "componentType": 5126,
      "count": 510,
      "max": [
        0.9969049096107483,
        1.0,
        1.0
      ],
      "min": [
        -0.9969049096107483,
        -1.0,
        -1.0
      ],
      "type": "VEC3"
    },
    {
      "bufferView": 1,
      "byteOffset": 28288,
      "componentType": 5126,
      "count": 510,
      "max": [
        0.961155891418457,
        0.952316164970398
      ],
      "min": [
        0.355629563331604,
        0.2888439893722534
      ],
      "type": "VEC2"
    },
    {
      "bufferView": 0,
      "byteOffset": 32040,
      "componentType": 5125,
      "count": 1020,
      "type": "SCALAR"
    },
    {
      "bufferView": 2,
      "byteOffset": 97104,
      "componentType": 5126,
      "count": 316,
      "max": [
        0.6455187797546387,
        0.800632119178772,
        0.45115357637405396
      ],
      "min": [
        -0.6455187797546387,
        0.15759329497814178,
        -0.3739335238933563
      ],
      "type": "VEC3"
    },
    {
      "bufferView": 2,
      "byteOffset": 100896,
      "componentType": 5126,
      "count": 316,
      "max": [
        0.9980733394622803,
        0.9975700974464417,
        0.9999626874923706
      ],
      "min": [
        -0.9980733394622803,
        -0.9999911785125732,
        -0.9999107122421265
      ],
      "type": "VEC3"
    },
    {
      "bufferView": 1,
      "byteOffset": 32368,
      "componentType": 5126,
      "count": 316,
      "max": [
        0.8803447484970093,
        0.967233419418335
      ],
      "min": [
        0.27867406606674194,
        0.5647794008255005
      ],
      "type": "VEC2"
    },
    {
      "bufferView": 0,
      "byteOffset": 36120,
      "componentType": 5125,
      "count": 684,
      "type": "SCALAR"
    },
    {
      "bufferView": 2,
      "byteOffset": 104688,
      "componentType": 5126,
      "count": 26,
      "max": [
        0.46075066924095154,
        0.7900458574295044,
        0.30874985456466675
      ],
      "min": [
        -0.46075066924095154,
        0.553223192691803,
        -0.35300198197364807
      ],
      "type": "VEC3"
    },
    {
      "bufferView": 2,
      "byteOffset": 105000,
      "componentType": 5126,
      "count": 26,
      "max": [
        0.931224524974823,
        0.9954935908317566,
        0.0851709395647049
      ],
      "min": [
        -0.9312244653701782,
        0.36440369486808777,
        0.005569061264395714
      ],
      "type": "VEC3"
    },
    {
      "bufferView": 1,
      "byteOffset": 34896,
      "componentType": 5126,
      "count": 26,
      "max": [
        0.19748133420944214,
        0.9243044853210449
      ],
      "min": [
        0.15322285890579224,
        0.7997928261756897
      ],
      "type": "VEC2"
    },
    {
      "bufferView": 0,
      "byteOffset": 38856,
      "componentType": 5125,
      "count": 42,
      "type": "SCALAR"
    },
    {
      "bufferView": 2,
      "byteOffset": 105312,
      "componentType": 5126,
      "count": 782,
      "max": [
        0.045440495014190674,
        0.22407950460910797,
        0.22407931089401245
      ],
      "min": [
        -0.1583009660243988,
        -0.2240794450044632,
        -0.22407960891723633
      ],
      "type": "VEC3"
    },
    {
      "bufferView": 2,
      "byteOffset": 114696,
      "componentType": 5126,
      "count": 782,
      "max": [
        1.0,
        1.0,
        1.0
      ],
      "min": [
        -1.0,
        -1.0,
        -1.0
      ],
      "type": "VEC3"
    },
    {
      "bufferView": 1,
      "byteOffset": 35104,
      "componentType": 5126,
      "count": 782,
      "max": [
        0.9433814883232117,
        0.968647301197052
      ],
      "min": [
        0.3234473764896393,
        0.31162989139556885
      ],
      "type": "VEC2"
    },
    {
      "bufferView": 0,
      "byteOffset": 39024,
      "componentType": 5125,
      "count": 1812,
      "type": "SCALAR"
    },
    {
      "bufferView": 2,
      "byteOffset": 124080,
      "componentType": 5126,
      "count": 782,
      "max": [
        0.1583009660243988,
        0.22407950460910797,
        0.22407931089401245
      ],
      "min": [
        -0.045440495014190674,
        -0.2240794450044632,
        -0.22407960891723633
      ],
      "type": "VEC3"
    },
    {
      "bufferView": 2,
      "byteOffset": 133464,
      "componentType": 5126,
      "count": 782,
      "max": [
        1.0,
        1.0,
        1.0
      ],
      "min": [
        -1.0,
        -1.0,
        -1.0
      ],
      "type": "VEC3"
    },
    {
      "bufferView": 1,
      "byteOffset": 41360,
      "componentType": 5126,
      "count": 782,
      "max": [
        0.9433814883232117,
        0.968647301197052
      ],
      "min": [
        0.3234473764896393,
        0.31162989139556885
      ],
      "type": "VEC2"
    },
    {
      "bufferView": 0,
      "byteOffset": 46272,
      "componentType": 5125,
      "count": 1812,
      "type": "SCALAR"
    },
    {
      "bufferView": 2,
      "byteOffset": 142848,
      "componentType": 5126,
      "count": 782,
      "max": [
        0.045440495014190674,
        0.22407950460910797,
        0.22407954931259155
      ],
      "min": [
        -0.1583009660243988,
        -0.2240794450044632,
        -0.224079430103302
      ],
      "type": "VEC3"
    },
    {
      "bufferView": 2,
      "byteOffset": 152232,
      "componentType": 5126,
      "count": 782,
      "max": [
        1.0,
        1.0,
        1.0
      ],
      "min": [
        -1.0,
        -1.0,
        -1.0
      ],
      "type": "VEC3"
    },
    {
      "bufferView": 1,
      "byteOffset": 47616,
      "componentType": 5126,
      "count": 782,
      "max": [
        0.9433814883232117,
        0.968647301197052
      ],
      "min": [
        0.3234473764896393,
        0.31162989139556885
      ],
      "type": "VEC2"
    },
    {
      "bufferView": 0,
      "byteOffset": 53520,
      "componentType": 5125,
      "count": 1812,
      "type": "SCALAR"
    },
    {
      "bufferView": 2,
      "byteOffset": 161616,
      "componentType": 5126,
      "count": 782,
      "max": [
        0.1583009660243988,
        0.22407950460910797,
        0.22407954931259155
      ],
      "min": [
        -0.045440495014190674,
        -0.2240794450044632,
        -0.224079430103302
      ],
      "type": "VEC3"
    },
    {
      "bufferView": 2,
      "byteOffset": 171000,
      "componentType": 5126,
      "count": 782,
      "max": [
        1.0,
        1.0,
        1.0
      ],
      "min": [
        -1.0,
        -1.0,
        -1.0
      ],
      "type": "VEC3"
    },
    {
      "bufferView": 1,
      "byteOffset": 53872,
      "componentType": 5126,
      "count": 782,
      "max": [
        0.9433814883232117,
        0.968647301197052
      ],
      "min": [
        0.3234473764896393,
        0.31162989139556885
      ],
      "type": "VEC2"
    },
    {
      "bufferView": 0,
      "byteOffset": 60768,
      "componentType": 5125,
      "count": 1812,
      "type": "SCALAR"
    },
    {
      "bufferView": 2,
      "byteOffset": 180384,
      "componentType": 5126,
      "count": 45561,
      "max": [
        3.8455021381378174,
        3.474046468734741,
        3.684424638748169
      ],
      "min": [
        -5.062478542327881,
        -0.6501096487045288,
        -3.999998092651367
      ],
      "type": "VEC3"
    },
    {
      "bufferView": 2,
      "byteOffset": 727116,
      "componentType": 5126,
      "count": 45561,
      "max": [
        0.9999997019767761,
        1.0,
        1.0
      ],
      "min": [
        -0.9996791481971741,
        -1.0,
        -0.9999326467514038
      ],
      "type": "VEC3"
    },
    {
      "bufferView": 1,
      "byteOffset": 60128,
      "componentType": 5126,
      "count": 45561,
      "max": [
        0.9698259830474854,
        0.9539549350738525
      ],
      "min": [
        0.03495335578918457,
        0.03495332598686218
      ],
      "type": "VEC2"
    },
    {
      "bufferView": 0,
      "byteOffset": 68016,
      "componentType": 5125,
      "count": 70098,
      "type": "SCALAR"
    },
    {
      "bufferView": 2,
      "byteOffset": 1273848,
      "componentType": 5126,
      "count": 756,
      "max": [
        0.9452574253082275,
        0.6001561284065247,
        0.9528099894523621
      ],
      "min": [
        -1.3939721584320068,
        -0.14667297899723053,
        -2.110218048095703
      ],
      "type": "VEC3"
    },
    {
      "bufferView": 2,
      "byteOffset": 1282920,
      "componentType": 5126,
      "count": 756,
      "max": [
        0.9923108816146851,
        0.9989385008811951,
        0.9372542500495911
      ],
      "min": [
        -0.9719237685203552,
        -0.9990484118461609,
        -0.9722438454627991
      ],
      "type": "VEC3"
    },
    {
      "bufferView": 1,
      "byteOffset": 424616,
      "componentType": 5126,
      "count": 756,
      "max": [
        0.20951882004737854,
        0.9556124210357666
      ],
      "min": [
        0.0404813289642334,
        0.7865749597549438
      ],
      "type": "VEC2"
    },
    {
      "bufferView": 0,
      "byteOffset": 348408,
      "componentType": 5125,
      "count": 1440,
      "type": "SCALAR"
    }
  ],
  "asset": {
    "extras": {
      "author": "BetelgeuseMan (https://sketchfab.com/betelgeuseman)",
      "license": "CC-BY-4.0 (http://creativecommons.org/licenses/by/4.0/)",
      "source": "https://sketchfab.com/3d-models/retrowave-lowpoly-car-remake-81c1d168da1a42e0a554dc295e289044",
      "title": "Retrowave LowPoly Car (Remake)"
    },
    "generator": "Sketchfab-12.66.0",
    "version": "2.0"
  },
  "bufferViews": [
    {
      "buffer": 0,
      "byteLength": 354168,
      "name": "floatBufferViews",
      "target": 34963
    },
    {
      "buffer": 0,
      "byteLength": 430664,
      "byteOffset": 354168,
      "byteStride": 8,
      "name": "floatBufferViews",
      "target": 34962
    },
    {
      "buffer": 0,
      "byteLength": 1291992,
      "byteOffset": 784832,
      "byteStride": 12,
      "name": "floatBufferViews",
      "target": 34962
    }
  ],
  "buffers": [
    {
      "byteLength": 2076824,
      "uri": "scene.bin"
    }
  ],
  "images": [
    {
      "uri": "textures/mt_palette_main_baseColor.png"
    }
  ],
  "materials": [
    {
      "emissiveFactor": [
        1.0,
        1.0,
        1.0
      ],
      "emissiveTexture": {
        "index": 0
      },
      "name": "mt_palette_main",
      "pbrMetallicRoughness": {
        "baseColorTexture": {
          "index": 0
        }
      }
    },
    {
      "alphaMode": "BLEND",
      "name": "mt_palette_glass",
      "pbrMetallicRoughness": {
        "baseColorFactor": [
          1.0,
          1.0,
          1.0,
          0.4
        ],
        "baseColorTexture": {
          "index": 0
        }
      }
    }
  ],
  "meshes": [
    {
      "name": "Object_0",
      "primitives": [
        {
          "attributes": {
            "NORMAL": 1,
            "POSITION": 0,
            "TEXCOORD_0": 2
          },
          "indices": 3,
          "material": 0,
          "mode": 4
        }
      ]
    },
    {
      "name": "Object_1",
      "primitives": [
        {
          "attributes": {
            "NORMAL": 5,
            "POSITION": 4,
            "TEXCOORD_0": 6
          },
          "indices": 7,
          "material": 1,
          "mode": 4
        }
      ]
    },
    {
      "name": "Object_2",
      "primitives": [
        {
          "attributes": {
            "NORMAL": 9,
            "POSITION": 8,
            "TEXCOORD_0": 10
          },
          "indices": 11,
          "material": 0,
          "mode": 4
        }
      ]
    },
    {
      "name": "Object_3",
      "primitives": [
        {
          "attributes": {
            "NORMAL": 13,
            "POSITION": 12,
            "TEXCOORD_0": 14
          },
          "indices": 15,
          "material": 0,
          "mode": 4
        }
      ]
    },
    {
      "name": "Object_4",
      "primitives": [
        {
          "attributes": {
            "NORMAL": 17,
            "POSITION": 16,
            "TEXCOORD_0": 18
          },
          "indices": 19,
          "material": 1,
          "mode": 4
        }
      ]
    },
    {
      "name": "Object_5",
      "primitives": [
        {
          "attributes": {
            "NORMAL": 21,
            "POSITION": 20,
            "TEXCOORD_0": 22
          },
          "indices": 23,
          "material": 0,
          "mode": 4
        }
      ]
    },
    {
      "name": "Object_6",
      "primitives": [
        {
          "attributes": {
            "NORMAL": 25,
            "POSITION": 24,
            "TEXCOORD_0": 26
          },
          "indices": 27,
          "material": 0,
          "mode": 4
        }
      ]
    },
    {
      "name": "Object_7",
      "primitives": [
        {
          "attributes": {
            "NORMAL": 29,
            "POSITION": 28,
            "TEXCOORD_0": 30
          },
          "indices": 31,
          "material": 0,
          "mode": 4
        }
      ]
    },
    {
      "name": "Object_8",
      "primitives": [
        {
          "attributes": {
            "NORMAL": 33,
            "POSITION": 32,
            "TEXCOORD_0": 34
          },
          "indices": 35,
          "material": 0,
          "mode": 4
        }
      ]
    },
    {
      "name": "Object_9",
      "primitives": [
        {
          "attributes": {
            "NORMAL": 37,
            "POSITION": 36,
            "TEXCOORD_0": 38
          },
          "indices": 39,
          "material": 0,
          "mode": 4
        }
      ]
    },
    {
      "name": "Object_10",
      "primitives": [
        {
          "attributes": {
            "NORMAL": 41,
            "POSITION": 40,
            "TEXCOORD_0": 42
          },
          "indices": 43,
          "material": 0,
          "mode": 4
        }
      ]
    }
  ],
  "nodes": [
    {
      "children": [
        1
      ],
      "matrix": [
        1.0,
        0.0,
        0.0,
        0.0,
        0.0,
        2.220446049250313e-16,
        -1.0,
        0.0,
        0.0,
        1.0,
        2.220446049250313e-16,
        0.0,
        0.0,
        0.0,
        0.0,
        1.0
      ],
      "name": "Sketchfab_model"
    },
    {
      "children": [
        2
      ],
      "name": "root"
    },
    {
      "children": [
        3,
        19,
        21
      ],
      "matrix": [
        1.0,
        0.0,
        0.0,
        0.0,
        0.0,
        2.220446049250313e-16,
        1.0,
        0.0,
        0.0,
        -1.0,
        2.220446049250313e-16,
        0.0,
        0.0,
        0.0,
        0.0,
        1.0
      ],
      "name": "GLTF_SceneRootNode"
    },
    {
      "children": [
        4,
        5,
        6,
        8,
        11,
        13,
        15,
        17
      ],
      "name": "CarBody_7"
    },
    {
      "mesh": 0,
      "name": "Object_4"
    },
    {
      "mesh": 1,
      "name": "Object_5"
    },
    {
      "children": [
        7
      ],
      "name": "CarBumper_1"
    },
    {
      "mesh": 2,
      "name": "Object_7"
    },
    {
      "children": [
        9,
        10
      ],
      "name": "Doors_2"
    },
    {
      "mesh": 3,
      "name": "Object_9"
    },
    {
      "mesh": 4,
      "name": "Object_10"
    },
    {
      "children": [
        12
      ],
      "matrix": [
        1.0,
        0.0,
        0.0,
        0.0,
        0.0,
        1.0,
        0.0,
        0.0,
        0.0,
        0.0,
        1.0,
        0.0,
        0.5991364121437073,
        0.22018937766551971,
        -0.953315019607544,
        1.0
      ],
      "name": "Wheel_BL_3"
    },
    {
      "mesh": 5,
      "name": "Object_12"
    },
    {
      "children": [
        14
      ],
      "matrix": [
        1.0,
        0.0,
        0.0,
        0.0,
        0.0,
        1.0,
        0.0,
        0.0,
        0.0,
        0.0,
        1.0,
        0.0,
        -0.5991364121437073,
        0.22018937766551971,
        -0.953315019607544,
        1.0
      ],
      "name": "Wheel_BR_4"
    },
    {
      "mesh": 6,
      "name": "Object_14"
    },
    {
      "children": [
        16
      ],
      "matrix": [
        1.0,
        0.0,
        0.0,
        0.0,
        0.0,
        1.0,
        0.0,
        0.0,
        0.0,
        0.0,
        1.0,
        0.0,
        0.5991364121437073,
        0.22018937766551971,
        0.7676151990890503,
        1.0
      ],
      "name": "Wheel_FL_5"
    },
    {
      "mesh": 7,
      "name": "Object_16"
    },
    {
      "children": [
        18
      ],
      "matrix": [
        1.0,
        0.0,
        0.0,
        0.0,
        0.0,
        1.0,
        0.0,
        0.0,
        0.0,
        0.0,
        1.0,
        0.0,
        -0.5991364121437073,
        0.22018937766551971,
        0.7676151990890503,
        1.0
      ],
      "name": "Wheel_FR_6"
    },
    {
      "mesh": 8,
      "name": "Object_18"
    },
    {
      "children": [
        20
      ],
      "name": "Island_8"
    },
    {
      "mesh": 9,
      "name": "Object_20"
    },
    {
      "children": [
        22
      ],
      "name": "Icosphere_10"
    },
    {
      "mesh": 10,
      "name": "Object_22"
    }
  ],
  "samplers": [
    {
      "magFilter": 9728,
      "minFilter": 9986,
      "wrapS": 10497,
      "wrapT": 10497
    }
  ],
  "scene": 0,
  "scenes": [
    {
      "name": "Sketchfab_Scene",
      "nodes": [
        0
      ]
    }
  ],
  "textures": [
    {
      "sampler": 0,
      "source": 0
    }
  ]
}
